<svg width="602" height="331" viewBox="0 0 602 331" fill="none" xmlns="http://www.w3.org/2000/svg">
<path fill-rule="evenodd" clip-rule="evenodd" d="M283.372 49.6157C253.448 19.2132 211.823 0.362305 165.795 0.362305C74.6866 0.362305 0.828857 74.22 0.828857 165.328C0.828857 256.436 74.6866 330.294 165.795 330.294C209.921 330.294 250 312.969 279.602 284.75C256.421 252.331 242.779 212.625 242.779 169.731C242.779 124.563 257.906 82.9276 283.372 49.6157Z" fill="black"/>
<path d="M406.343 9.79199H475.48V330.297H406.343V9.79199Z" fill="black"/>
<path d="M601.171 135.492L601.171 204.63L280.666 204.63L280.666 135.492L601.171 135.492Z" fill="black"/>
<path d="M529.788 32.3242L578.676 81.2118L352.044 307.843L303.157 258.955L529.788 32.3242Z" fill="black"/>
<path d="M578.682 258.959L529.794 307.847L303.163 81.2153L352.05 32.3278L578.682 258.959Z" fill="black"/>
</svg>
