<svg width="1593" height="331" viewBox="0 0 1593 331" fill="none" xmlns="http://www.w3.org/2000/svg">
<path fill-rule="evenodd" clip-rule="evenodd" d="M283.372 49.6157C253.448 19.2132 211.823 0.362305 165.795 0.362305C74.6866 0.362305 0.828857 74.22 0.828857 165.328C0.828857 256.436 74.6866 330.294 165.795 330.294C209.921 330.294 250 312.969 279.602 284.75C256.421 252.331 242.779 212.625 242.779 169.731C242.779 124.563 257.906 82.9276 283.372 49.6157Z" fill="black"/>
<path d="M406.343 9.79199H475.48V330.297H406.343V9.79199Z" fill="black"/>
<path d="M601.171 135.492L601.171 204.63L280.666 204.63L280.666 135.492L601.171 135.492Z" fill="black"/>
<path d="M529.788 32.3242L578.676 81.2118L352.044 307.843L303.157 258.955L529.788 32.3242Z" fill="black"/>
<path d="M578.682 258.959L529.794 307.847L303.163 81.2153L352.05 32.3278L578.682 258.959Z" fill="black"/>
<path d="M649.639 19.4205H725.491L805.604 214.875H809.014L889.127 19.4205H964.979V310.33H905.32V120.983H902.906L827.622 308.909H786.997L711.712 120.273H709.298V310.33H649.639V19.4205ZM951.654 310.33V19.4205H1068.13C1089.53 19.4205 1107.38 22.5928 1121.68 28.9375C1135.98 35.2822 1146.73 44.0891 1153.93 55.358C1161.12 66.5322 1164.72 79.411 1164.72 93.9944C1164.72 105.358 1162.45 115.349 1157.9 123.966C1153.36 132.489 1147.11 139.496 1139.15 144.989C1131.29 150.386 1122.3 154.222 1112.17 156.494V159.335C1123.25 159.809 1133.61 162.934 1143.27 168.71C1153.03 174.487 1160.93 182.583 1167 193C1173.06 203.322 1176.09 215.633 1176.09 229.932C1176.09 245.367 1172.25 259.146 1164.58 271.267C1157 283.294 1145.78 292.811 1130.92 299.818C1116.05 306.826 1097.72 310.33 1075.94 310.33H951.654ZM1013.16 260.045H1063.3C1080.44 260.045 1092.94 256.778 1100.8 250.244C1108.66 243.616 1112.59 234.809 1112.59 223.824C1112.59 215.775 1110.65 208.672 1106.77 202.517C1102.89 196.362 1097.35 191.532 1090.15 188.028C1083.05 184.525 1074.57 182.773 1064.72 182.773H1013.16V260.045ZM1013.16 141.153H1058.76C1067.18 141.153 1074.67 139.686 1081.2 136.75C1087.83 133.72 1093.04 129.458 1096.82 123.966C1100.71 118.474 1102.65 111.892 1102.65 104.222C1102.65 93.7103 1098.91 85.2349 1091.43 78.7955C1084.04 72.3561 1073.53 69.1364 1059.89 69.1364H1013.16V141.153ZM1309.92 103.085C1308.78 91.6269 1303.91 82.7254 1295.29 76.3807C1286.67 70.036 1274.98 66.8637 1260.2 66.8637C1250.17 66.8637 1241.69 68.2841 1234.78 71.125C1227.86 73.8713 1222.56 77.7065 1218.87 82.6307C1215.27 87.555 1213.47 93.1421 1213.47 99.3921C1213.28 104.6 1214.37 109.146 1216.74 113.028C1219.2 116.911 1222.56 120.273 1226.82 123.114C1231.08 125.86 1236.01 128.275 1241.6 130.358C1247.18 132.347 1253.15 134.051 1259.49 135.472L1285.63 141.722C1298.32 144.563 1309.97 148.35 1320.57 153.085C1331.18 157.82 1340.36 163.644 1348.13 170.557C1355.9 177.47 1361.91 185.614 1366.17 194.989C1370.53 204.364 1372.75 215.112 1372.85 227.233C1372.75 245.036 1368.21 260.472 1359.21 273.54C1350.31 286.513 1337.43 296.599 1320.57 303.795C1303.81 310.898 1283.59 314.449 1259.92 314.449C1236.43 314.449 1215.98 310.85 1198.56 303.653C1181.23 296.456 1167.68 285.803 1157.93 271.693C1148.27 257.489 1143.21 239.922 1142.73 218.994H1202.25C1202.91 228.748 1205.71 236.892 1210.63 243.426C1215.65 249.866 1222.33 254.742 1230.66 258.057C1239.09 261.277 1248.6 262.886 1259.21 262.886C1269.63 262.886 1278.67 261.371 1286.34 258.341C1294.11 255.311 1300.12 251.097 1304.38 245.699C1308.64 240.301 1310.77 234.099 1310.77 227.091C1310.77 220.557 1308.83 215.064 1304.95 210.614C1301.16 206.163 1295.57 202.375 1288.19 199.25C1280.9 196.125 1271.95 193.284 1261.34 190.727L1229.66 182.773C1205.14 176.807 1185.77 167.479 1171.57 154.79C1157.36 142.1 1150.31 125.008 1150.4 103.511C1150.31 85.8978 1155 70.5095 1164.47 57.3466C1174.03 44.1838 1187.15 33.9091 1203.81 26.5228C1220.48 19.1364 1239.42 15.4432 1260.63 15.4432C1282.22 15.4432 1301.07 19.1364 1317.16 26.5228C1333.36 33.9091 1345.95 44.1838 1354.95 57.3466C1363.94 70.5095 1368.58 85.7557 1368.87 103.085H1309.92ZM1339.14 70.1307V19.4205H1578.06V70.1307H1489V310.33H1428.2V70.1307H1339.14Z" fill="black"/>
</svg>
